<svg xmlns="http://www.w3.org/2000/svg" width="38" height="38" viewBox="0 0 38 38">
    <g fill="none" fill-rule="evenodd" transform="translate(1 1)">
        <path fill="#484B5A" d="M22.133 11.003L20.355 11c-1.997 0-3.288 1.352-3.288 3.445v1.589H15.28a.283.283 0 0 0-.28.286v2.301c0 .158.125.286.28.286h1.787v5.808c0 .157.125.285.28.285h2.332c.154 0 .28-.128.28-.285v-5.808h2.09c.154 0 .279-.128.279-.286V16.32a.289.289 0 0 0-.081-.202.277.277 0 0 0-.198-.084h-2.09v-1.347c0-.647.15-.975.976-.975h1.197c.155 0 .28-.129.28-.286v-2.138a.283.283 0 0 0-.28-.285z"/>
        <rect width="36" height="36" stroke="#484B5A" rx="15"/>
    </g>
</svg>
