<svg xmlns="http://www.w3.org/2000/svg" width="38" height="38" viewBox="0 0 38 38">
    <g fill="none" fill-rule="evenodd" transform="translate(1 1)">
        <g fill="#484B5A">
            <path d="M21.534 11h-6.52C12.802 11 11 12.724 11 14.842v6.239c0 2.118 1.801 3.842 4.015 3.842h6.519c2.213 0 4.015-1.724 4.015-3.842v-6.239c0-2.118-1.802-3.842-4.015-3.842zm2.724 10.08c0 1.438-1.222 2.607-2.724 2.607h-6.52c-1.501 0-2.723-1.169-2.723-2.606v-6.239c0-1.437 1.222-2.607 2.724-2.607h6.519c1.502 0 2.724 1.17 2.724 2.607v6.239z"/>
            <path d="M18.274 14.374c-2.067 0-3.749 1.61-3.749 3.588s1.682 3.587 3.75 3.587c2.066 0 3.748-1.61 3.748-3.587 0-1.979-1.682-3.588-3.749-3.588zm0 5.94c-1.355 0-2.458-1.056-2.458-2.353 0-1.297 1.103-2.352 2.458-2.352 1.356 0 2.458 1.055 2.458 2.352s-1.102 2.353-2.458 2.353zM22.18 13.327a.972.972 0 0 0-.668.265.89.89 0 0 0-.278.64c0 .239.101.472.278.641a.976.976 0 0 0 1.338 0 .893.893 0 0 0 .277-.64.89.89 0 0 0-.277-.641.973.973 0 0 0-.67-.265z"/>
        </g>
        <rect width="36" height="36" stroke="#484B5A" rx="15"/>
    </g>
</svg>
