<svg xmlns="http://www.w3.org/2000/svg" width="38" height="38" viewBox="0 0 38 38">
    <g fill="none" fill-rule="evenodd" transform="translate(1 1)">
        <path fill="#484B5A" d="M25 19.386v5.28h-3V19.74c0-1.237-.435-2.082-1.52-2.082-.83 0-1.323.57-1.54 1.12-.08.197-.1.47-.1.746v5.143h-3.002s.04-8.344 0-9.209h3.002v1.306l-.02.03h.02v-.03c.399-.627 1.11-1.522 2.705-1.522 1.975 0 3.455 1.316 3.455 4.145zm-12.301-8.368c-1.027 0-1.699.687-1.699 1.59 0 .885.652 1.593 1.659 1.593h.02c1.046 0 1.697-.708 1.697-1.592-.02-.904-.65-1.591-1.677-1.591zm-1.52 13.648h3v-9.209h-3v9.21z"/>
        <rect width="36" height="36" stroke="#484B5A" rx="15"/>
    </g>
</svg>
